<?xml version="1.0" standalone="no"?>
<!DOCTYPE svg PUBLIC "-//W3C//DTD SVG 20010904//EN"
 "http://www.w3.org/TR/2001/REC-SVG-20010904/DTD/svg10.dtd">
<svg version="1.0" xmlns="http://www.w3.org/2000/svg"
 width="512.000000pt" height="512.000000pt" viewBox="0 0 512.000000 512.000000"
 preserveAspectRatio="xMidYMid meet">
<metadata>
Created by potrace 1.14, written by Peter Selinger 2001-2017
</metadata>
<g transform="translate(0.000000,512.000000) scale(0.100000,-0.100000)"
fill="#000000" stroke="none">
<path d="M2395 4650 c-379 -43 -711 -209 -978 -490 -236 -248 -382 -563 -422
-912 l-6 -58 -110 0 -109 0 0 170 0 170 -29 32 c-24 27 -36 33 -71 33 -35 0
-47 -6 -71 -33 l-29 -32 0 -276 c0 -289 8 -405 41 -569 27 -135 98 -344 155
-457 l46 -93 54 -585 c29 -322 54 -593 54 -603 0 -9 9 -26 21 -38 15 -15 18
-24 10 -32 -16 -16 -15 -368 1 -389 12 -14 78 -16 603 -20 325 -1 1122 -2
1772 -1 1168 3 1183 3 1203 23 20 20 20 33 20 813 l0 794 -21 19 c-17 15 -40
20 -119 22 l-99 4 45 89 c56 111 126 321 153 454 33 164 41 280 41 569 l0 276
-29 32 c-24 27 -36 33 -71 33 -35 0 -47 -6 -71 -33 l-29 -32 0 -170 0 -170
-110 0 c-109 0 -110 0 -110 24 0 58 -42 260 -74 359 -181 553 -654 961 -1231
1062 -112 19 -324 27 -430 15z m355 -295 c231 -35 406 -110 603 -259 166 -124
325 -418 372 -688 21 -118 21 -334 1 -450 -52 -291 -219 -577 -443 -761 l-68
-55 -142 -4 c-133 -3 -144 -5 -165 -26 -17 -17 -24 -38 -28 -85 l-5 -62 -82
-22 -83 -21 1 141 c0 78 4 248 8 377 l8 235 136 299 c76 164 137 310 137 323
0 38 -48 77 -138 111 -215 84 -400 83 -611 -3 -90 -36 -131 -71 -131 -109 0
-13 62 -158 137 -322 l137 -299 7 -225 c4 -124 8 -298 8 -387 1 -163 1 -163
-21 -163 -42 0 -212 29 -278 47 l-65 18 -5 110 c-7 128 -20 165 -81 224 -55
53 -78 52 -136 -2 -35 -33 -50 -58 -67 -110 l-21 -66 -74 56 -73 57 7 112 7
111 -27 22 c-22 17 -41 21 -95 21 l-67 0 -32 71 c-71 158 -104 327 -104 519 1
346 129 657 373 900 291 292 698 427 1100 365z m-1755 -1432 c12 -101 44 -245
74 -335 l30 -88 -114 0 -114 0 -25 83 c-33 110 -56 223 -63 319 l-6 78 106 0
106 0 6 -57z m3342 -20 c-15 -194 -91 -448 -190 -638 l-63 -120 -132 -3 -132
-3 55 81 c114 171 200 388 236 598 10 63 19 125 19 138 0 24 1 24 106 24 l107
0 -6 -77z m-2721 -1077 c58 -44 59 -44 77 -25 16 17 32 19 162 19 l145 0 0
-185 0 -185 -160 0 -160 0 0 39 c0 38 -2 40 -76 86 l-76 48 6 71 c9 98 18 176
20 176 2 0 29 -20 62 -44z m747 -302 l67 -7 0 -109 0 -109 -47 6 c-81 11 -216
35 -248 43 l-30 8 -3 111 -3 110 98 -23 c54 -13 128 -27 166 -30z m515 -91
l-3 -107 -40 -7 c-22 -4 -64 -9 -92 -13 l-53 -7 0 111 0 110 38 1 c20 0 55 4
77 8 81 17 76 24 73 -96z m-1313 -70 l45 -28 0 -332 0 -333 -80 0 -80 0 0 91
c0 50 -5 99 -10 110 -8 14 -6 25 9 46 16 23 22 64 35 228 17 200 22 245 31
245 2 0 25 -12 50 -27z m768 -255 l107 -12 0 -76 c0 -42 3 -138 7 -213 l6
-137 -136 0 -137 0 0 231 0 231 23 -6 c12 -3 70 -11 130 -18z m547 -213 l0
-225 -107 0 -106 0 6 113 c4 61 7 157 7 213 l0 101 88 10 c48 5 93 11 100 11
9 2 12 -49 12 -223z"/>
</g>
</svg>
